<svg xmlns="http://www.w3.org/2000/svg" viewBox="0 0 70.48 69.09"><defs><style>.cls-1{fill:#d0e1f5;}.cls-2,.cls-3{fill:#fff;}.cls-2{opacity:0.6;}.cls-3{stroke:#fff;stroke-width:0.94px;}</style></defs><title>Recurso 25</title><g id="Capa_2" data-name="Capa 2"><g id="Capa_2-2" data-name="Capa 2"><rect class="cls-1" width="70.48" height="69.09" rx="16.46"/><path class="cls-2" d="M51.53,23.14a7.63,7.63,0,0,1-7.64-7.66c0-.14,0-.3,0-.49V14.9c0-.22,0-.46,0-.7a2.06,2.06,0,0,0-.5-1.47A2.35,2.35,0,0,0,42,12.17a10.55,10.55,0,0,0-1.11,0h-.51a9.59,9.59,0,0,0-1.06,0,2.24,2.24,0,0,0-1.43.56,2.06,2.06,0,0,0-.5,1.47c0,.24,0,.48,0,.7V15c0,.19,0,.35,0,.49V42.77a7.64,7.64,0,0,1-13,5.42,7.69,7.69,0,0,1-1.66-8.35A7.71,7.71,0,0,1,25.5,36.4a7.61,7.61,0,0,1,4.24-1.29h1.33a1.8,1.8,0,0,0,2-2c0-.25,0-.49,0-.71v-.16c0-.16,0-.3,0-.43v-.11a10,10,0,0,0,0-1.19,2.38,2.38,0,0,0-.58-1.38A2.29,2.29,0,0,0,31,28.61a8.42,8.42,0,0,0-1,0h-.28A14.11,14.11,0,0,0,21.88,31,14.17,14.17,0,0,0,35.15,55.87a14.19,14.19,0,0,0,8.74-13.1V27.41a13.87,13.87,0,0,0,7.64,2.24l.5,0h.07c.21,0,.45,0,.69,0a2,2,0,0,0,1.45-.49,2.39,2.39,0,0,0,.58-1.45,9.44,9.44,0,0,0,.06-1.25v-.22a8.59,8.59,0,0,0-.06-1.2,2.35,2.35,0,0,0-.58-1.37l-.37.37.37-.37a2.27,2.27,0,0,0-1.41-.56,9.28,9.28,0,0,0-1,0Z"/><path class="cls-3" d="M49.82,24.62A6.85,6.85,0,0,1,43,17.76c0-.12,0-.26,0-.43v-.08c0-.2,0-.42,0-.63a1.93,1.93,0,0,0-.44-1.32,2.16,2.16,0,0,0-1.33-.5c-.34,0-.71,0-1,0H39.8c-.28,0-.63,0-.95,0a2.11,2.11,0,0,0-1.29.5,1.93,1.93,0,0,0-.44,1.32c0,.21,0,.43,0,.63v.08c0,.17,0,.31,0,.43V42.2a6.84,6.84,0,0,1-11.68,4.85,6.86,6.86,0,0,1,4.84-11.71H31.5a2,2,0,0,0,1.34-.47,1.91,1.91,0,0,0,.45-1.32c0-.22,0-.44,0-.64V32.8c0-.15,0-.28,0-.39v-.1a8.26,8.26,0,0,0-.05-1.07A2.13,2.13,0,0,0,32.7,30a2,2,0,0,0-1.24-.49c-.3,0-.63,0-.89,0h-.25A12.7,12.7,0,1,0,43,42.2V28.45a12.45,12.45,0,0,0,6.84,2l.45,0h.06l.62,0a1.85,1.85,0,0,0,1.3-.44,2.2,2.2,0,0,0,.52-1.3,9.09,9.09,0,0,0,0-1.12v-.2a8.18,8.18,0,0,0,0-1.07,2.1,2.1,0,0,0-.52-1.23l-.33.33.33-.33a2.05,2.05,0,0,0-1.26-.5c-.32,0-.66,0-.94,0Z"/></g></g></svg>